{"glyphs":{"0":{"ha":671,"x_min":0,"x_max":604,"o":"m 300 972 q 572 740 507 972 q 604 476 604 629 l 604 462 q 527 116 604 236 q 300 0 450 0 q 37 199 105 0 q 0 454 0 306 l 0 483 q 188 951 0 870 q 300 972 237 972 m 170 483 l 170 452 q 214 207 170 283 q 298 155 246 155 q 418 305 390 155 q 431 471 431 376 l 431 483 q 357 797 431 730 q 298 819 331 819 q 178 636 202 819 q 170 483 170 573 z "},"1":{"ha":380,"x_min":0,"x_max":312,"o":"m 307 973 l 311 973 q 312 972 312 973 l 312 -3 q 311 -3 312 -3 l 279 -3 q 168 39 214 -3 q 135 121 135 72 l 135 738 l 1 738 q 0 739 0 738 l 0 850 l 1 850 q 109 871 77 850 q 146 900 125 882 q 196 943 181 933 q 251 968 220 963 q 307 973 277 973 z "},"2":{"ha":678,"x_min":0,"x_max":610,"o":"m 316 977 l 328 977 q 534 898 456 977 q 610 707 610 821 q 452 383 610 541 q 354 284 423 353 q 273 190 293 226 q 265 177 269 183 l 477 177 q 576 129 532 177 q 610 24 610 90 l 610 5 q 608 4 610 4 l 1 4 l 0 5 q 14 79 6 50 q 55 182 32 140 q 119 275 79 224 q 307 473 174 344 q 410 600 397 568 q 435 694 435 647 q 358 817 435 792 q 321 823 338 823 l 315 823 q 221 774 254 823 q 202 730 208 753 q 194 672 194 691 q 182 671 191 671 l 26 671 l 25 671 q 41 773 32 736 q 72 850 55 820 q 316 977 141 977 z "},"3":{"ha":678,"x_min":0,"x_max":610,"o":"m 275 972 l 325 972 q 584 823 519 972 q 604 722 604 774 l 604 720 q 460 517 604 568 l 460 512 q 570 418 529 489 q 610 269 610 348 q 419 16 610 84 q 308 0 364 0 l 287 0 q 17 137 85 0 q 0 220 0 184 l 0 314 q 7 319 1 319 l 10 319 q 195 208 157 319 q 283 134 216 134 l 303 134 q 399 245 387 134 l 399 279 q 351 422 399 406 q 259 438 317 438 l 205 438 q 198 443 198 438 l 198 453 q 318 574 198 544 q 399 689 399 595 l 399 709 q 361 821 399 798 q 290 838 327 838 q 198 785 222 838 q 17 682 161 682 l 7 682 q 0 686 0 682 l 0 715 q 275 972 0 972 z "},"4":{"ha":671,"x_min":0,"x_max":604,"o":"m 423 972 l 497 972 q 499 970 499 972 l 499 358 l 600 358 q 604 356 604 358 l 604 197 q 600 195 604 195 l 499 195 l 499 2 q 497 0 499 0 l 462 0 q 362 67 404 0 q 342 163 342 100 l 342 195 l 3 195 q 0 197 0 195 l 0 301 q 33 414 0 368 q 340 930 328 913 q 423 972 379 972 m 340 687 q 151 359 286 591 l 341 359 l 341 687 l 340 687 z "},"5":{"ha":678,"x_min":0,"x_max":610,"o":"m 569 972 q 570 972 570 972 l 570 939 q 531 842 570 886 q 433 798 490 798 l 241 798 q 215 634 216 637 q 330 665 273 665 l 338 665 q 509 596 433 665 q 610 342 610 501 q 509 84 610 193 q 448 37 475 52 q 298 0 382 0 q 53 119 138 0 q 17 191 35 145 q 1 258 8 214 q 0 266 1 260 q 85 275 75 275 l 87 275 q 187 225 146 275 q 205 198 193 217 q 301 149 246 149 q 405 212 365 149 q 431 338 431 260 q 346 508 431 472 q 296 517 323 517 q 162 446 222 517 l 161 446 q 110 465 131 451 q 82 490 87 481 q 44 587 44 534 q 58 682 44 606 q 110 972 109 968 l 569 972 z "},"6":{"ha":678,"x_min":0,"x_max":610,"o":"m 318 0 q 77 130 168 0 q 0 480 0 245 q 106 872 0 758 q 335 972 196 972 q 550 862 481 972 q 578 795 566 837 q 593 735 593 748 q 534 730 549 730 q 412 773 463 730 q 390 797 401 783 q 322 821 363 821 q 224 762 263 821 q 208 722 217 750 q 193 663 200 702 q 182 560 186 630 q 180 555 182 557 q 345 635 248 635 l 348 635 q 547 530 464 635 q 610 322 610 447 q 490 54 610 148 q 318 0 418 0 m 437 315 l 437 330 q 357 493 437 456 q 319 501 337 501 l 313 501 q 256 483 283 501 q 196 337 196 441 q 275 165 196 214 q 326 152 298 152 q 417 208 383 152 q 437 315 437 250 z "},"7":{"ha":671,"x_min":0,"x_max":604,"o":"m 1 972 l 452 972 q 583 899 538 972 q 604 825 604 863 q 566 729 604 774 q 453 537 508 647 q 372 328 408 450 q 320 0 320 147 l 136 0 q 135 1 135 0 q 153 184 135 72 q 205 376 175 291 q 328 642 260 528 q 436 797 380 727 l 150 797 q 35 849 83 797 q 0 949 0 889 l 0 972 q 1 972 0 972 z "},"8":{"ha":678,"x_min":0,"x_max":610,"o":"m 302 972 q 555 840 484 972 q 581 727 581 790 q 507 564 581 629 q 468 537 481 545 q 454 530 454 531 q 582 418 542 494 q 610 296 610 364 q 536 91 610 172 q 311 0 454 0 q 62 105 153 0 q 0 286 0 180 l 0 292 q 42 439 0 370 q 154 530 81 498 q 47 625 79 562 q 23 727 23 673 q 113 917 23 845 q 302 972 183 972 m 192 716 q 254 610 192 638 q 298 601 275 601 l 306 601 q 387 636 354 601 q 412 718 412 667 l 412 718 q 355 821 412 790 q 303 831 332 831 q 207 780 238 831 q 192 716 192 754 m 175 308 q 250 161 175 202 q 307 147 275 147 q 409 203 371 147 q 433 302 433 243 l 433 309 q 370 437 433 393 q 304 454 341 454 q 200 397 232 454 q 175 308 175 356 z "},"9":{"ha":678,"x_min":0,"x_max":610,"o":"m 292 972 q 534 843 442 972 q 610 492 610 727 q 505 100 610 215 q 275 0 414 0 q 61 111 130 0 q 31 177 45 136 q 18 237 18 224 l 18 237 q 77 243 62 243 q 199 199 148 243 q 220 176 209 189 q 289 151 247 151 q 387 211 348 151 q 404 251 395 222 q 417 309 410 271 q 429 412 425 342 q 429 418 429 415 q 265 338 363 338 l 262 338 q 64 442 146 338 q 0 650 0 526 q 121 918 0 825 q 292 972 194 972 m 173 659 l 173 644 q 252 481 173 517 q 290 473 272 473 l 296 473 q 354 491 327 473 q 413 637 413 532 q 335 809 413 760 q 284 822 311 822 q 194 766 227 822 q 173 659 173 724 z "}," ":{"ha":345,"x_min":0,"x_max":0,"o":""},"!":{"ha":244,"x_min":0,"x_max":176,"o":"m 73 974 l 176 971 l 176 970 q 164 561 175 911 q 155 276 156 294 q 142 248 152 259 q 84 223 118 223 q 30 224 70 223 q 21 422 29 224 q 5 810 19 460 q 0 920 4 810 q 22 957 0 939 q 73 974 45 974 m 45 176 l 173 176 q 174 175 174 176 l 174 43 q 144 3 174 14 q 132 1 138 1 l 1 1 q 1 2 1 1 l 1 131 q 31 174 1 163 q 45 176 37 176 z "},"\"":{"ha":456,"x_min":30,"x_max":425,"o":"m 72 1066 l 205 1066 l 205 1064 q 206 956 205 1030 l 206 949 q 201 903 206 918 q 189 878 197 892 q 148 820 176 860 q 106 759 124 786 q 90 750 99 750 l 79 750 q 49 765 62 750 q 37 791 37 779 q 43 806 37 799 l 92 881 l 99 891 l 71 891 q 37 909 50 891 q 30 932 30 920 l 30 1025 q 47 1058 30 1045 q 72 1066 58 1066 m 290 1069 l 423 1069 l 423 1067 q 425 958 423 1033 l 425 952 q 419 906 425 921 q 407 881 415 895 q 366 823 395 863 q 324 762 342 789 q 308 753 317 753 l 298 753 q 267 768 280 753 q 256 793 256 782 q 262 808 256 802 l 311 884 l 317 894 l 290 894 q 255 911 269 894 q 248 935 248 922 l 248 1027 q 265 1061 248 1048 q 290 1069 276 1069 z "},"#":{"ha":672,"x_min":0,"x_max":599,"o":"m 305 971 q 351 940 335 971 q 355 920 355 930 q 345 871 355 911 q 313 748 345 871 l 404 748 q 452 939 446 917 q 479 966 460 958 q 499 971 490 971 l 585 971 l 585 970 q 528 748 585 968 l 598 748 q 599 747 599 748 q 579 670 582 676 q 530 640 564 640 l 501 640 l 437 386 l 507 386 l 508 385 q 488 309 490 313 q 475 290 484 299 q 444 277 459 277 l 410 277 q 340 0 342 6 l 281 0 q 232 35 248 0 q 229 51 229 44 q 239 94 229 59 q 285 277 240 100 l 195 277 q 133 33 137 47 q 85 0 117 0 l 1 0 q 0 1 0 0 l 70 277 l 65 277 q 24 302 41 277 q 16 328 16 316 q 26 374 16 336 q 30 386 29 386 l 97 386 q 107 427 98 386 q 161 640 110 433 l 160 640 q 109 676 122 640 q 106 690 106 683 l 106 692 q 118 742 106 701 q 120 748 119 748 l 189 748 q 245 971 245 970 l 305 971 m 286 640 l 222 386 l 313 386 l 376 640 l 286 640 z "},"$":{"ha":611,"x_min":-1,"x_max":544,"o":"m 272 972 q 526 844 473 972 q 536 808 531 831 q 543 730 543 781 l 543 632 q 543 631 543 631 l 477 631 q 373 683 396 631 q 361 726 363 707 q 360 766 361 757 q 351 802 360 779 q 271 840 330 840 q 181 750 181 840 l 181 674 q 236 569 181 595 q 269 557 247 564 q 359 538 290 551 q 427 519 401 530 q 527 422 500 487 q 544 313 544 380 l 544 305 q 541 189 543 189 q 531 142 541 177 q 511 97 522 115 q 481 62 503 84 q 435 31 454 39 q 278 -1 370 -1 l 264 -1 q 76 50 146 -1 q 50 74 66 56 q 8 154 19 109 q -1 234 -1 186 l -1 347 l 58 347 q 125 326 96 347 q 181 235 181 286 l 181 222 q 224 140 181 159 q 270 132 244 132 l 273 132 q 361 224 361 132 l 361 295 q 309 400 361 378 q 136 453 250 421 q 58 486 81 469 q 31 512 41 498 q 16 544 24 523 q 7 586 11 561 q -1 743 -1 635 q 272 972 -1 972 m 304 1025 l 304 -56 l 237 -56 l 237 1025 l 304 1025 z "},"%":{"ha":800,"x_min":0,"x_max":732,"o":"m 180 -5 q 146 28 150 7 q 146 34 146 30 q 170 115 146 42 q 281 480 279 473 q 420 930 378 796 q 431 966 430 966 l 528 966 q 550 962 540 966 q 578 932 574 950 l 578 930 q 578 924 578 928 q 524 745 575 910 q 399 338 522 737 q 307 37 308 39 q 293 -7 294 -7 l 197 -7 q 180 -5 188 -7 m 161 975 q 258 943 214 975 q 277 926 264 938 q 297 901 292 909 q 322 814 322 861 q 286 713 322 758 q 261 688 273 696 q 161 653 216 653 l 161 653 q 62 687 107 653 q 43 705 54 693 q 9 759 20 730 q 0 814 0 786 q 35 913 0 869 q 52 933 39 920 q 106 966 77 955 q 161 975 134 975 m 98 814 q 122 764 98 785 q 159 751 140 751 l 163 751 q 205 768 185 751 q 224 813 224 788 l 224 815 q 205 860 224 840 l 201 863 q 161 878 183 878 q 113 857 134 878 q 98 814 98 838 m 570 323 q 668 290 624 323 q 687 273 674 286 q 707 248 702 257 q 732 161 732 208 q 696 60 732 106 q 671 35 682 44 q 571 1 626 1 l 570 1 q 471 35 517 1 q 452 52 464 41 q 419 106 430 77 q 410 161 410 134 q 444 261 410 216 q 462 281 449 268 q 515 313 486 302 q 570 323 543 323 m 507 161 q 532 111 507 132 q 569 98 550 98 l 572 98 q 614 115 595 98 q 634 161 634 136 l 634 163 q 615 208 634 187 l 611 211 q 571 225 593 225 q 523 204 543 225 q 507 161 507 185 z "},"&":{"ha":880,"x_min":0,"x_max":789,"o":"m 248 775 l 248 774 q 332 633 248 715 q 377 680 368 668 q 425 778 425 738 l 425 783 q 398 832 425 812 q 340 850 374 850 q 264 819 294 850 q 248 775 248 800 m 180 283 q 224 187 180 227 q 310 157 262 157 q 471 234 389 157 q 479 242 479 241 l 283 440 l 283 440 q 237 405 262 428 q 180 283 180 348 m 321 977 l 329 977 q 466 934 393 977 q 515 896 484 924 q 573 767 573 835 l 573 762 q 466 570 573 669 q 428 538 452 557 q 568 387 567 388 q 627 461 589 442 q 700 476 656 476 q 755 471 722 476 l 755 471 q 720 330 739 378 q 696 280 709 302 q 740 249 716 264 q 789 153 789 210 q 755 50 789 104 q 677 86 713 66 q 600 138 647 102 q 319 7 475 7 q 118 71 211 7 q 71 111 99 83 q 0 278 0 188 q 86 465 0 376 q 154 522 127 505 q 183 541 176 537 l 183 542 q 72 744 72 652 l 72 753 q 122 882 72 819 q 159 917 149 911 q 212 950 183 936 q 321 977 271 977 z "},"'":{"ha":256,"x_min":41,"x_max":218,"o":"m 83 1069 l 216 1069 l 216 1067 q 218 958 216 1033 l 218 952 q 212 906 218 921 q 200 881 208 895 q 159 823 188 863 q 117 762 136 789 q 101 753 111 753 l 91 753 q 60 768 73 753 q 49 793 49 782 q 55 808 49 802 l 104 884 l 111 894 l 83 894 q 48 911 62 894 q 41 935 41 922 l 41 1027 q 58 1061 41 1048 q 83 1069 69 1069 z "},"(":{"ha":414,"x_min":67,"x_max":345,"o":"m 295 834 l 345 834 q 345 833 345 834 l 345 741 q 323 711 345 723 q 292 709 317 709 q 268 704 275 706 q 239 680 248 697 q 230 628 230 660 l 230 68 q 261 -5 230 11 q 284 -12 277 -12 q 315 -14 287 -13 q 335 -23 328 -16 q 345 -45 345 -34 l 345 -138 q 345 -138 345 -138 l 305 -138 q 165 -118 209 -138 q 121 -91 143 -110 q 67 70 67 -43 l 67 625 q 143 804 67 760 q 295 834 193 834 z "},")":{"ha":414,"x_min":67,"x_max":345,"o":"m 269 798 q 345 621 345 755 l 345 65 q 291 -96 345 -48 q 247 -123 269 -115 q 108 -143 203 -143 l 68 -143 q 67 -142 67 -143 l 67 -50 q 77 -28 67 -39 q 98 -18 84 -21 q 127 -16 126 -18 q 151 -9 136 -16 q 182 63 182 6 l 182 623 q 173 674 182 654 q 144 699 164 692 q 120 704 137 701 q 89 707 96 704 q 67 736 67 718 l 67 829 q 68 829 67 829 l 118 829 q 269 798 220 829 z "},"*":{"ha":875,"x_min":17,"x_max":749,"o":"m 359 1159 l 408 1159 q 442 1151 432 1159 q 463 1114 463 1135 l 463 1109 q 420 839 463 1106 q 665 961 645 951 q 682 964 673 964 l 682 964 q 721 944 705 964 q 736 905 726 937 q 749 859 749 867 l 749 855 q 726 814 749 831 q 704 808 713 808 q 446 764 703 808 l 446 764 q 639 570 624 586 q 648 543 648 557 q 622 499 648 515 q 569 461 571 461 q 553 457 559 457 l 548 457 q 512 475 528 457 q 484 526 508 481 q 383 721 389 710 q 330 618 382 720 l 256 477 q 241 464 245 465 q 219 457 230 457 l 214 457 q 177 475 197 457 q 142 500 176 475 q 119 543 119 516 q 140 583 119 565 q 321 764 245 688 l 321 764 q 50 811 63 808 q 22 836 31 818 q 17 854 17 846 l 17 858 q 26 893 17 866 q 43 940 39 934 q 72 962 51 955 q 84 964 79 964 l 85 964 q 122 951 100 964 l 347 839 q 304 1109 304 1102 l 304 1114 q 324 1151 304 1135 q 359 1159 335 1159 z "},"+":{"ha":895,"x_min":68,"x_max":827,"o":"m 420 825 l 532 825 q 533 825 533 825 l 533 532 l 770 532 q 824 496 809 532 q 827 478 827 487 l 827 363 q 826 363 827 363 l 533 363 l 533 119 q 507 73 533 90 q 481 66 494 66 l 363 66 q 362 66 362 66 l 362 363 l 121 363 q 79 383 97 363 q 68 419 68 397 l 68 532 q 68 532 68 532 l 362 532 l 362 772 q 392 820 362 803 q 420 825 404 825 z "},",":{"ha":312,"x_min":68,"x_max":244,"o":"m 110 171 l 243 171 l 243 169 q 244 60 243 135 l 244 54 q 239 7 244 22 q 227 -18 235 -5 q 186 -77 214 -37 q 144 -139 162 -112 q 127 -148 137 -148 l 117 -148 q 87 -133 100 -148 q 75 -106 75 -119 q 81 -92 75 -98 l 130 -16 l 137 -5 l 109 -5 q 75 12 88 -5 q 68 36 68 23 l 68 129 q 85 163 68 150 q 110 171 96 171 z "},"-":{"ha":474,"x_min":75,"x_max":399,"o":"m 75 394 l 75 409 q 117 498 75 461 q 219 536 160 536 l 399 536 l 399 519 q 358 430 399 467 q 258 394 317 394 l 75 394 z "},".":{"ha":310,"x_min":68,"x_max":242,"o":"m 113 174 l 241 174 q 242 174 242 174 l 242 41 q 213 1 242 13 q 200 0 206 0 l 68 0 q 68 1 68 0 l 68 130 q 98 172 68 162 q 113 174 104 174 z "},"/":{"ha":477,"x_min":-5,"x_max":428,"o":"m 29 2 q -4 35 -1 14 q -5 41 -5 37 q 19 121 -4 49 q 131 487 128 479 q 269 937 227 803 q 281 973 279 973 l 377 973 q 399 969 389 973 q 427 939 424 957 l 427 937 q 428 930 428 935 q 373 751 425 917 q 249 345 372 744 q 156 43 157 45 q 142 0 144 0 l 46 0 q 29 2 37 0 z "},":":{"ha":319,"x_min":68,"x_max":251,"o":"m 119 695 l 250 695 q 251 694 251 695 l 251 562 q 221 522 251 534 q 208 521 214 521 l 74 521 q 73 522 73 521 l 73 650 q 104 693 73 683 q 119 695 110 695 m 113 171 l 245 171 q 245 170 245 171 l 245 38 q 216 -2 245 9 q 203 -3 209 -3 l 68 -3 q 68 -3 68 -3 l 68 126 q 98 169 68 159 q 113 171 104 171 z "},";":{"ha":319,"x_min":68,"x_max":251,"o":"m 114 172 l 250 172 l 250 170 q 251 60 250 136 l 251 54 q 245 8 251 23 q 233 -17 241 -3 q 191 -75 220 -35 q 149 -136 168 -109 q 132 -145 142 -145 l 121 -145 q 91 -130 104 -145 q 79 -104 79 -116 q 85 -90 79 -96 l 135 -14 l 142 -4 l 113 -4 q 78 14 92 -4 q 71 37 71 24 l 71 130 q 89 163 71 151 q 114 172 100 172 m 113 696 l 245 696 q 245 695 245 696 l 245 563 q 216 523 245 534 q 203 522 209 522 l 68 522 q 68 522 68 522 l 68 651 q 98 694 68 684 q 113 696 104 696 z "},"<":{"ha":841,"x_min":68,"x_max":773,"o":"m 772 788 l 773 787 l 773 655 q 735 601 773 615 q 289 439 290 439 l 289 439 q 745 273 731 279 q 773 222 773 257 l 773 91 q 772 90 773 90 q 222 296 342 251 q 96 343 109 338 q 68 391 68 361 l 68 488 q 100 537 68 520 q 656 745 590 720 l 772 788 z "},"=":{"ha":793,"x_min":0,"x_max":726,"o":"m 125 699 l 724 699 q 726 698 726 699 l 726 654 q 705 578 726 607 q 642 531 683 545 q 605 524 625 524 l 1 524 q 0 526 0 524 l 0 570 q 61 682 0 646 q 125 699 87 699 m 119 337 l 724 337 q 726 336 726 336 l 726 292 q 691 201 726 235 q 598 163 656 163 l 1 163 q 0 163 0 163 l 0 210 q 72 326 0 290 q 119 337 97 337 z "},">":{"ha":841,"x_min":68,"x_max":773,"o":"m 68 90 l 68 92 l 68 224 q 106 278 68 264 q 552 439 551 439 l 552 440 q 96 606 110 600 q 68 657 68 622 l 68 788 q 68 789 68 789 q 619 583 499 628 q 745 536 732 541 q 773 488 773 517 l 773 391 q 741 342 773 359 q 185 134 251 159 l 68 90 z "},"?":{"ha":613,"x_min":0,"x_max":545,"o":"m 273 997 q 517 879 452 997 q 545 745 545 824 q 492 556 545 641 q 441 487 472 525 q 349 365 367 404 q 326 273 326 321 q 333 216 326 240 l 332 215 l 170 215 q 165 225 167 215 q 158 276 158 245 q 195 416 158 355 q 256 502 218 456 q 353 677 336 597 q 360 753 360 714 l 360 759 q 319 845 360 825 q 267 856 300 856 q 187 817 208 856 q 175 759 175 794 l 175 688 q 142 651 175 660 q 132 650 136 650 l 1 650 q 0 651 0 650 l 0 753 q 37 895 0 834 q 273 997 104 997 m 205 146 l 338 146 q 338 145 338 146 l 338 32 q 309 -3 338 7 q 295 -4 302 -4 l 161 -4 q 159 -3 159 -4 l 159 108 q 191 144 159 136 q 205 146 196 146 z "},"@":{"ha":1038,"x_min":0,"x_max":970,"o":"m 264 970 l 703 970 q 867 910 789 970 q 913 863 901 881 q 963 753 950 814 q 968 646 968 737 l 970 353 q 959 309 970 334 q 852 246 924 246 q 601 244 622 244 l 598 244 q 581 280 594 250 q 445 246 507 246 l 435 246 q 315 289 365 246 q 275 376 275 326 l 275 496 q 309 544 275 529 q 326 547 317 547 l 408 547 q 408 546 408 547 l 408 372 q 452 324 408 336 q 477 321 458 322 q 539 348 518 321 q 545 368 545 360 l 545 450 q 546 634 545 516 q 491 684 546 673 l 472 684 q 420 664 442 684 q 408 632 408 652 l 408 613 q 408 612 408 612 l 275 612 l 275 629 q 380 743 275 707 q 477 757 427 757 q 637 711 574 757 q 680 629 680 677 l 680 366 l 834 366 l 834 642 q 767 789 834 727 q 684 831 728 821 q 637 836 663 836 l 330 836 q 176 762 238 836 q 134 637 134 709 l 134 332 q 221 166 134 229 q 335 134 270 134 l 633 134 q 668 136 642 134 l 931 136 q 932 134 932 135 q 897 87 920 113 q 699 0 811 0 l 269 0 q 98 62 175 0 q 61 99 73 84 q 0 270 0 175 l 0 700 q 96 906 0 821 q 212 964 147 949 q 264 970 239 970 z "},"A":{"ha":678,"x_min":0,"x_max":610,"o":"m 374 972 q 446 911 433 972 l 610 0 l 492 0 q 411 136 427 0 l 406 176 l 191 176 l 176 83 q 104 0 157 0 l 0 0 l 171 911 q 237 972 177 972 l 374 972 m 301 804 l 221 331 q 228 317 221 317 q 241 311 228 311 l 368 311 q 382 317 375 311 l 382 331 l 301 804 z "},"B":{"ha":610,"x_min":0,"x_max":543,"o":"m 172 424 l 172 129 l 271 129 q 321 138 304 129 q 354 169 345 151 q 362 227 362 187 l 362 311 q 351 382 362 357 q 315 418 339 412 q 285 424 301 424 l 172 424 m 261 823 l 176 823 l 176 564 l 243 564 q 302 573 276 564 q 337 606 323 579 q 349 667 349 625 l 349 732 q 329 798 349 773 q 261 823 305 823 m 267 971 q 413 943 355 971 q 498 871 472 919 q 517 813 510 844 q 525 746 525 783 l 525 710 q 517 643 525 673 q 498 588 510 612 q 413 515 472 543 l 413 512 q 513 436 481 488 q 543 321 543 392 l 543 230 q 475 60 543 117 q 276 -1 405 -1 l 73 -1 q 21 22 41 -1 q 0 75 0 45 l 0 895 q 21 947 0 922 q 73 971 41 971 l 267 971 z "},"C":{"ha":610,"x_min":0,"x_max":543,"o":"m 368 372 l 445 372 q 543 298 543 372 l 543 241 q 271 -2 543 -2 q 0 241 0 -2 l 0 728 q 271 970 0 970 q 543 728 543 970 l 543 709 q 445 634 543 634 l 368 634 l 368 747 q 271 839 368 839 q 174 747 174 839 l 174 222 q 271 130 174 130 q 368 222 368 130 l 368 372 z "},"D":{"ha":610,"x_min":0,"x_max":543,"o":"m 68 0 q 0 75 0 0 l 0 903 q 68 972 0 972 l 280 972 q 480 909 418 972 q 543 734 543 853 l 543 244 q 480 63 543 125 q 280 0 405 0 l 68 0 m 274 834 l 175 834 l 175 138 l 274 138 q 324 151 299 138 q 355 182 349 163 q 368 233 368 208 l 368 740 q 355 797 368 772 q 324 828 342 815 q 274 834 311 834 z "},"E":{"ha":543,"x_min":0,"x_max":475,"o":"m 178 832 l 178 564 l 340 564 q 416 486 416 564 l 416 424 l 178 424 l 178 138 l 408 138 q 475 60 475 138 l 475 -1 l 76 -1 q 0 77 0 -1 l 0 893 q 76 971 0 971 l 475 971 l 475 910 q 408 832 475 832 l 178 832 z "},"F":{"ha":543,"x_min":0,"x_max":475,"o":"m 177 833 l 177 541 l 412 541 l 412 471 q 386 420 412 439 q 335 401 361 401 l 177 401 l 177 70 q 107 0 177 0 l 0 0 l 0 897 q 70 972 0 972 l 475 972 l 475 903 q 449 852 475 871 q 399 833 424 833 l 177 833 z "},"G":{"ha":610,"x_min":0,"x_max":543,"o":"m 285 412 l 285 474 q 365 543 285 543 l 471 543 q 543 474 543 543 l 543 9 l 418 9 l 418 35 q 266 1 343 1 q 142 22 205 1 q 0 245 0 71 l 0 736 q 35 868 0 815 q 267 973 89 973 q 507 868 445 973 q 543 736 543 815 l 543 648 l 445 648 q 374 719 374 648 l 374 745 q 272 842 365 842 q 178 745 178 842 l 178 237 q 196 176 178 202 q 272 140 214 140 q 356 176 329 140 q 374 237 374 202 l 374 412 l 285 412 z "},"H":{"ha":610,"x_min":0,"x_max":543,"o":"m 170 416 l 170 71 q 98 -3 170 -3 l 0 -3 l 0 969 l 98 969 q 170 895 170 969 l 170 550 l 366 550 l 366 895 q 438 969 366 969 l 543 969 l 543 -3 l 438 -3 q 366 71 366 -3 l 366 416 l 170 416 z "},"I":{"ha":248,"x_min":0,"x_max":180,"o":"m 0 1 l 0 896 q 21 950 0 927 q 78 974 43 974 l 180 974 l 180 79 q 156 25 180 48 q 102 1 133 1 l 0 1 z "},"J":{"ha":407,"x_min":0,"x_max":339,"o":"m 0 -1 l 0 140 l 62 140 q 113 146 101 140 q 151 172 132 153 q 163 230 163 197 l 163 895 q 233 972 163 972 l 339 972 l 339 243 q 321 121 339 165 q 264 50 295 63 q 182 12 220 18 q 132 2 157 5 q 88 -1 107 -1 l 0 -1 z "},"K":{"ha":678,"x_min":0,"x_max":610,"o":"m 469 0 q 398 38 418 0 l 244 385 l 186 296 l 186 70 q 110 0 186 0 l 0 0 l 0 972 l 110 972 q 186 897 186 972 l 186 549 l 404 935 q 469 972 424 972 l 610 972 l 353 537 l 610 0 l 469 0 z "},"L":{"ha":407,"x_min":0,"x_max":339,"o":"m 251 -2 q 208 1 233 -2 q 157 11 182 4 q 81 41 119 17 q 19 120 44 62 q 0 241 0 165 l 0 970 l 106 970 q 176 894 176 970 l 176 229 q 189 171 176 197 q 227 145 207 152 q 276 139 239 139 l 339 139 l 339 -2 l 251 -2 z "},"M":{"ha":814,"x_min":0,"x_max":746,"o":"m 188 972 q 258 915 243 972 l 376 281 l 383 281 l 488 915 q 558 972 495 972 l 746 972 l 746 0 l 648 0 q 578 72 578 0 l 578 699 l 571 699 l 467 58 q 397 0 453 0 l 349 0 q 278 58 286 0 l 161 692 l 153 692 l 153 72 q 83 0 153 0 l 0 0 l 0 972 l 188 972 z "},"N":{"ha":678,"x_min":0,"x_max":610,"o":"m 1 972 l 180 972 q 257 924 234 972 q 391 521 389 526 q 435 390 391 519 l 438 390 l 438 892 q 486 966 438 944 q 522 972 500 972 l 610 972 q 610 971 610 972 l 610 0 q 610 -1 610 -1 l 473 -1 q 396 47 418 -1 q 258 458 262 448 q 176 703 258 459 l 173 703 l 173 77 q 127 7 173 29 q 92 -1 112 -1 l 1 -1 q 0 0 0 -1 l 0 971 q 1 972 0 972 z "},"O":{"ha":610,"x_min":0,"x_max":543,"o":"m 179 745 l 179 230 q 201 164 179 197 q 269 138 224 138 q 336 157 313 138 q 363 230 363 184 l 363 745 q 341 817 363 791 q 269 837 313 837 q 201 817 224 837 q 179 745 179 791 m 0 242 l 0 730 q 33 862 0 809 q 123 941 67 909 q 261 971 184 971 l 277 971 q 420 941 363 968 q 509 862 469 915 q 543 730 543 809 l 543 242 q 509 111 543 171 q 420 32 481 65 q 268 -1 352 -1 q 123 32 184 -1 q 33 111 67 58 q 0 242 0 171 z "},"P":{"ha":610,"x_min":0,"x_max":543,"o":"m 268 972 q 477 908 398 972 q 543 728 543 844 l 543 600 q 477 429 543 492 q 268 364 412 364 l 183 364 l 183 76 q 157 19 183 38 q 104 -1 131 -1 l 0 -1 l 0 895 q 20 946 0 920 q 78 972 39 972 l 268 972 m 268 831 l 183 831 l 183 505 l 268 505 q 321 511 308 505 q 340 524 333 518 q 359 563 359 550 l 359 742 q 353 787 359 768 q 327 819 340 812 q 268 831 308 831 z "},"Q":{"ha":610,"x_min":0,"x_max":543,"o":"m 267 971 l 276 971 q 454 923 384 971 q 485 897 467 916 q 529 823 515 863 q 543 722 543 785 l 543 248 q 526 138 543 180 q 505 98 517 118 q 498 89 499 90 q 424 144 439 134 q 383 163 406 155 q 349 168 370 167 q 361 200 361 191 q 364 231 364 212 l 364 739 q 323 824 364 805 q 271 836 303 836 q 189 791 209 836 q 179 740 179 770 l 179 230 q 219 146 179 165 q 245 136 227 141 q 249 136 249 136 q 224 108 235 122 q 212 92 216 97 q 330 2 329 4 l 330 2 q 273 -1 300 -1 l 271 -1 q 35 103 101 -1 q 13 150 22 122 q 0 246 0 188 l 0 722 q 20 838 0 795 q 122 943 50 908 q 267 971 185 971 m 336 149 q 422 115 382 149 l 536 27 q 482 -19 511 -8 q 439 -27 462 -27 l 437 -27 q 357 3 395 -27 q 237 96 238 95 q 260 122 245 108 q 336 149 291 149 z "},"R":{"ha":610,"x_min":0,"x_max":543,"o":"m 241 972 q 366 962 327 972 q 422 943 406 952 q 505 854 481 912 q 524 715 524 795 l 524 709 q 499 557 524 616 q 472 519 489 537 q 438 492 456 502 q 408 477 421 482 l 408 474 q 421 469 408 473 q 505 386 479 443 q 524 269 524 339 l 524 107 q 543 1 524 36 l 543 0 l 366 0 q 357 23 363 3 q 347 154 347 70 q 349 273 347 168 q 302 382 349 359 q 268 393 281 393 q 224 396 258 396 l 176 396 q 175 395 175 396 l 175 77 q 141 13 175 39 q 97 0 121 0 l 1 0 q 0 1 0 0 l 0 895 q 38 962 0 937 q 82 972 55 972 l 241 972 m 175 833 l 175 535 l 245 535 q 338 584 318 535 q 348 642 348 605 l 348 731 q 316 819 348 798 q 260 833 296 833 l 175 833 z "},"S":{"ha":610,"x_min":0,"x_max":543,"o":"m 272 972 q 524 844 473 972 q 535 808 530 830 q 542 730 542 780 l 542 631 q 541 631 542 631 l 476 631 q 372 682 395 631 q 361 725 363 706 q 360 765 361 756 q 351 801 360 779 q 271 840 330 840 q 180 749 180 840 l 180 673 q 235 568 180 594 q 269 556 246 563 q 359 538 290 551 q 426 518 400 529 q 526 422 498 486 q 543 313 543 380 l 543 305 q 539 189 541 189 q 530 142 539 177 q 509 97 520 115 q 480 62 502 84 q 433 31 453 39 q 278 -1 370 -1 l 264 -1 q 77 50 146 -1 q 50 74 67 56 q 9 154 20 109 q 0 234 0 186 l 0 347 l 58 347 q 125 326 96 347 q 180 235 180 286 l 180 222 q 224 140 180 159 q 269 132 243 132 l 273 132 q 361 224 361 132 l 361 295 q 308 400 361 378 q 136 453 250 421 q 58 486 82 469 q 32 511 41 498 q 17 543 24 522 q 7 585 12 560 q 0 742 0 635 q 272 972 0 972 z "},"T":{"ha":610,"x_min":0,"x_max":543,"o":"m 78 834 q 0 910 0 834 l 0 972 l 470 972 q 543 897 543 972 l 543 834 l 358 834 l 358 76 q 336 21 358 41 q 286 0 313 0 l 184 0 l 184 834 l 78 834 z "},"U":{"ha":610,"x_min":0,"x_max":543,"o":"m 0 972 l 106 972 q 162 953 138 972 q 186 897 186 935 l 186 231 q 197 169 186 187 q 229 144 208 150 q 258 137 244 137 l 288 137 q 329 144 313 137 q 361 175 351 156 q 372 231 372 200 l 372 897 q 446 972 372 972 l 543 972 l 543 237 q 511 112 543 156 q 420 24 473 43 q 272 -1 367 -1 q 122 24 176 -1 q 33 112 64 50 q 0 237 0 156 l 0 972 z "},"V":{"ha":678,"x_min":0,"x_max":610,"o":"m 115 973 q 186 914 174 973 l 309 178 l 315 178 l 437 914 q 508 973 444 973 l 610 973 l 444 60 q 374 1 431 1 l 231 1 q 161 60 168 1 l 0 973 l 115 973 z "},"W":{"ha":949,"x_min":0,"x_max":882,"o":"m 513 -1 l 444 518 l 376 -1 l 191 -1 q 123 66 123 -1 l 0 971 l 109 971 q 184 910 171 971 l 273 208 l 356 903 q 431 971 362 971 l 472 971 q 547 910 533 971 l 629 201 l 718 910 q 793 971 718 971 l 882 971 l 766 66 q 691 -1 752 -1 l 513 -1 z "},"X":{"ha":760,"x_min":0,"x_max":692,"o":"m 479 919 q 552 970 499 970 l 671 970 l 479 496 l 692 -3 l 546 -3 q 473 41 479 -3 l 340 382 l 333 382 l 200 41 q 127 -3 173 -3 l 0 -3 l 213 496 l 14 970 l 159 970 q 233 919 206 970 l 353 610 l 479 919 z "},"Y":{"ha":746,"x_min":0,"x_max":678,"o":"m 321 0 q 247 71 247 0 l 247 322 l 0 972 l 144 972 q 219 921 192 972 l 349 528 l 479 921 q 555 972 486 972 l 678 972 l 438 322 l 438 0 l 321 0 z "},"Z":{"ha":610,"x_min":0,"x_max":543,"o":"m 14 975 l 543 975 l 543 836 l 193 142 l 467 142 q 543 68 543 142 l 543 3 l 0 3 l 0 142 l 351 836 l 96 836 q 14 909 14 836 l 14 975 z "},"[":{"ha":353,"x_min":0,"x_max":285,"o":"m 44 1087 l 284 1087 q 285 1086 285 1087 l 285 985 q 262 951 285 964 q 245 947 254 947 l 172 947 l 172 142 l 243 142 q 283 114 273 142 q 285 104 285 110 l 285 3 q 284 2 285 2 l 41 2 q 1 33 11 2 q 0 41 0 38 l 0 1048 q 27 1085 0 1074 q 44 1087 34 1087 z "},"\\":{"ha":502,"x_min":0,"x_max":434,"o":"m 51 972 l 148 972 q 161 929 149 972 q 254 628 163 927 q 379 222 378 229 q 434 42 431 56 q 433 36 434 39 l 433 35 q 406 4 430 16 q 383 0 395 0 l 286 0 q 275 36 285 0 q 136 486 233 170 q 24 851 134 493 q 0 932 1 924 q 1 937 0 935 q 34 970 4 959 q 51 972 42 972 z "},"]":{"ha":353,"x_min":0,"x_max":285,"o":"m 258 1085 q 285 1048 285 1074 l 285 41 q 284 33 285 38 q 244 2 274 2 l 1 2 q 0 3 0 2 l 0 104 q 1 114 0 110 q 42 142 12 142 l 112 142 l 112 947 l 40 947 q 22 951 31 947 q 0 985 0 964 l 0 1086 q 1 1087 0 1087 l 241 1087 q 258 1085 251 1087 z "},"^":{"ha":590,"x_min":0,"x_max":522,"o":"m 522 439 l 422 439 q 382 468 393 439 q 261 802 261 802 q 137 460 141 471 q 98 439 125 439 l 0 439 q 154 852 120 762 q 190 947 186 937 q 224 968 203 968 l 298 968 q 334 943 322 968 q 490 528 471 576 l 522 439 z "},"_":{"ha":810,"x_min":5,"x_max":697,"o":"m 124 18 l 696 18 q 697 17 697 18 l 697 -11 q 677 -60 697 -41 q 617 -91 656 -81 q 582 -95 600 -95 l 6 -95 q 5 -94 5 -95 l 5 -65 q 64 7 5 -17 q 124 18 90 18 z "},"a":{"ha":610,"x_min":0,"x_max":543,"o":"m 167 536 l 167 502 l 0 502 l 0 525 q 78 651 0 605 q 250 696 157 696 q 422 651 344 696 q 501 525 501 605 l 501 136 q 543 -1 501 56 l 397 -1 l 376 56 q 195 -2 275 -2 q 110 16 149 -2 q 0 182 0 68 l 0 341 q 63 411 0 411 l 167 411 l 167 170 q 245 102 167 102 q 334 170 323 102 l 334 536 q 250 605 334 605 q 167 536 167 605 z "},"b":{"ha":665,"x_min":0,"x_max":597,"o":"m 231 160 q 315 93 231 93 q 326 94 320 93 q 419 169 419 98 l 419 525 q 326 587 419 587 q 231 534 231 587 l 231 160 m 54 883 l 142 883 q 231 794 231 883 l 231 687 q 319 697 275 697 q 473 669 394 697 q 597 518 597 625 l 597 171 q 473 16 597 64 q 373 -3 425 -3 q 186 47 286 -3 l 160 2 l 0 2 q 54 136 54 56 l 54 883 z "},"c":{"ha":610,"x_min":0,"x_max":543,"o":"m 271 696 q 486 636 427 696 q 543 462 543 582 l 543 459 l 433 459 q 385 483 406 459 q 370 524 370 503 l 370 530 q 328 592 370 578 q 276 599 306 599 q 182 532 182 599 l 182 164 q 224 106 182 119 q 271 99 245 99 l 280 99 q 363 134 344 99 q 370 165 370 147 l 370 196 q 401 253 370 231 q 437 262 417 262 l 543 262 l 543 258 q 499 77 543 131 q 481 57 497 73 q 271 0 421 0 q 33 75 100 0 q 0 173 0 115 l 0 524 q 134 680 0 642 q 271 696 194 696 z "},"d":{"ha":665,"x_min":0,"x_max":597,"o":"m 365 534 q 271 587 365 587 q 178 525 178 587 l 178 169 q 271 94 178 98 q 282 93 277 93 q 365 160 365 93 l 365 534 m 543 133 q 597 0 543 54 l 437 0 l 410 45 q 224 -5 311 -5 q 125 14 172 -5 q 0 168 0 62 l 0 513 q 125 664 0 620 q 277 692 203 692 q 366 682 322 692 l 366 789 q 454 877 366 877 l 543 877 l 543 133 z "},"e":{"ha":610,"x_min":0,"x_max":543,"o":"m 178 530 l 178 404 l 363 404 l 363 530 q 269 600 363 600 q 178 530 178 600 m 543 523 l 543 378 q 520 320 543 342 q 468 298 497 298 l 178 298 l 178 157 q 267 91 178 91 q 361 157 361 91 l 361 243 l 543 243 l 543 165 q 267 -3 543 -3 q 72 40 144 -3 q 0 165 0 83 l 0 523 q 72 650 0 605 q 267 695 144 695 q 543 523 543 695 z "},"f":{"ha":332,"x_min":0,"x_max":264,"o":"m 0 720 q 85 853 0 825 q 264 881 171 881 l 264 792 q 201 773 226 787 q 176 726 176 759 l 176 572 l 220 572 q 264 534 264 572 l 264 479 l 176 479 l 176 -1 l 83 -1 q 22 22 44 -1 q 0 83 0 43 l 0 720 z "},"g":{"ha":665,"x_min":0,"x_max":597,"o":"m 372 33 q 272 22 322 22 q 123 45 197 22 q 0 196 0 84 l 0 519 q 121 677 0 626 q 223 697 168 697 q 415 648 309 697 l 437 694 l 597 694 q 547 533 547 637 q 547 524 547 528 q 549 224 549 412 q 540 -54 549 16 q 479 -163 530 -124 q 386 -206 439 -189 q 262 -223 332 -223 q 167 -210 210 -223 q 94 -176 123 -197 q 16 -79 41 -133 l 184 -79 q 273 -123 210 -123 q 294 -122 283 -123 q 372 26 372 -114 l 372 33 m 365 532 q 330 576 360 562 q 267 591 300 591 q 204 574 232 591 q 176 528 176 557 l 176 187 q 204 136 176 153 q 267 119 232 119 q 330 134 300 119 q 365 183 360 149 l 365 532 z "},"h":{"ha":610,"x_min":0,"x_max":543,"o":"m 0 883 l 101 883 q 165 857 134 883 q 196 792 196 830 l 196 653 q 269 659 218 659 q 543 498 543 659 l 543 87 q 520 28 543 50 q 459 1 492 1 l 363 1 l 363 509 q 269 568 363 568 q 179 509 179 568 l 179 87 q 157 28 179 50 q 95 1 129 1 l 0 1 l 0 883 z "},"i":{"ha":264,"x_min":20,"x_max":198,"o":"m 73 929 l 197 929 q 198 928 198 929 l 198 802 q 170 764 198 774 q 157 762 163 762 l 30 762 q 29 763 29 762 l 29 886 q 58 927 29 918 q 73 929 64 929 m 20 0 l 20 615 q 41 670 20 646 q 96 694 62 694 l 193 694 l 193 79 q 171 24 193 47 q 118 0 148 0 l 20 0 z "},"j":{"ha":339,"x_min":0,"x_max":271,"o":"m 271 614 l 271 -23 q 183 -157 271 -129 q 0 -184 94 -184 l 0 -96 q 61 -76 33 -90 q 94 -18 88 -62 l 94 697 l 188 697 q 249 675 227 697 q 271 614 271 653 z "},"k":{"ha":678,"x_min":0,"x_max":610,"o":"m 450 -1 q 396 26 423 -1 l 241 275 l 182 211 l 182 -1 l 69 -1 q 0 81 0 -1 l 0 606 q 19 671 0 650 q 69 698 38 692 l 182 698 l 182 395 l 187 395 l 401 671 q 450 698 429 698 l 610 698 l 354 385 l 610 -1 l 450 -1 z "},"l":{"ha":339,"x_min":0,"x_max":271,"o":"m 22 860 q 83 882 44 882 l 177 882 l 177 168 q 210 109 182 123 q 271 90 238 95 l 271 1 q 89 28 177 1 q 0 162 0 56 l 0 800 q 22 860 0 838 z "},"m":{"ha":949,"x_min":0,"x_max":882,"o":"m 441 662 q 625 700 514 700 q 882 534 882 700 l 882 90 q 857 27 882 52 q 796 1 833 1 l 711 1 l 711 534 q 625 598 711 598 q 526 534 526 598 l 526 90 q 503 27 526 52 q 453 1 477 1 l 355 1 l 355 534 q 258 598 355 598 q 171 534 171 598 l 171 90 q 147 27 170 51 q 86 1 126 1 l 0 1 l 0 534 q 258 700 0 700 q 441 662 368 700 z "},"n":{"ha":610,"x_min":0,"x_max":543,"o":"m 543 88 q 521 28 543 50 q 456 -1 492 -1 l 364 -1 l 364 536 q 271 602 364 602 q 178 536 178 602 l 178 88 q 157 28 178 50 q 100 -1 136 -1 l 0 -1 l 0 529 q 271 698 0 698 q 543 529 543 698 l 543 88 z "},"o":{"ha":610,"x_min":0,"x_max":543,"o":"m 173 531 l 173 157 q 269 90 173 90 q 365 157 365 90 l 365 531 q 269 598 365 598 q 173 531 173 598 m 0 163 l 0 522 q 271 698 0 698 q 543 522 543 698 l 543 163 q 271 -1 543 -1 q 0 163 0 -1 z "},"p":{"ha":658,"x_min":0,"x_max":590,"o":"m 227 162 q 319 110 227 110 q 411 171 411 110 l 411 520 q 319 594 411 590 l 310 594 q 227 528 227 594 l 227 162 m 53 555 q 0 696 53 635 l 159 696 l 184 644 q 368 693 283 693 q 467 675 420 693 q 590 520 590 626 l 590 176 q 467 26 590 71 q 317 -1 390 -1 q 229 9 272 -1 l 229 -97 q 141 -185 229 -185 l 53 -185 l 53 555 z "},"q":{"ha":665,"x_min":0,"x_max":597,"o":"m 362 526 q 280 593 362 593 l 269 593 q 176 517 176 588 l 176 164 q 269 102 176 102 q 362 155 362 102 l 362 526 m 544 -189 l 454 -189 q 365 -100 365 -189 l 365 5 q 277 -5 322 -5 q 125 24 203 -5 q 0 174 0 68 l 0 519 q 125 674 0 625 q 224 692 172 692 q 410 643 311 692 l 437 687 l 597 687 q 544 554 544 634 l 544 -189 z "},"r":{"ha":475,"x_min":0,"x_max":407,"o":"m 0 525 q 41 628 0 592 q 142 677 82 663 q 239 695 203 691 q 307 699 271 699 l 319 699 q 407 649 407 699 l 407 605 q 318 602 385 605 q 216 584 251 598 q 180 530 180 569 l 180 0 l 87 0 q 25 17 39 0 q 0 81 0 39 l 0 525 z "},"s":{"ha":610,"x_min":0,"x_max":543,"o":"m 543 272 l 543 163 q 271 -3 543 -3 q 0 163 0 -3 l 0 243 l 69 243 q 144 220 110 243 q 179 163 179 197 l 179 157 q 271 94 179 94 q 363 157 363 94 l 363 209 q 306 283 363 266 q 179 306 248 300 q 55 332 110 312 q 0 420 0 351 l 0 529 q 271 695 0 695 q 543 529 543 695 l 543 449 l 479 449 q 395 472 427 449 q 363 529 363 494 l 363 534 q 271 597 363 597 q 179 534 179 597 l 179 483 q 234 403 179 420 q 358 380 289 386 q 485 357 427 374 q 543 272 543 340 z "},"t":{"ha":332,"x_min":0,"x_max":264,"o":"m 0 798 q 22 859 0 837 q 83 881 44 881 l 176 881 l 176 570 l 264 570 l 264 515 q 220 477 264 477 l 176 477 l 176 155 q 201 107 176 121 q 264 88 226 94 l 264 -1 q 85 27 171 -1 q 0 160 0 55 l 0 798 z "},"u":{"ha":610,"x_min":0,"x_max":543,"o":"m 0 609 q 25 673 0 648 q 76 699 50 699 l 177 699 l 177 165 q 265 102 177 102 q 366 165 366 102 l 366 609 q 391 673 366 648 q 441 699 416 699 l 543 699 l 543 165 q 265 0 543 0 q 0 165 0 0 l 0 609 z "},"v":{"ha":610,"x_min":0,"x_max":543,"o":"m 0 700 l 87 700 q 173 630 150 700 l 277 197 l 380 630 q 467 700 397 700 l 543 700 l 404 71 q 318 1 380 1 l 224 1 q 139 71 144 1 l 0 700 z "},"w":{"ha":997,"x_min":0,"x_max":929,"o":"m 370 613 q 397 677 370 650 q 456 700 419 700 l 555 700 l 555 165 q 583 109 555 125 q 652 93 610 93 q 747 161 747 93 l 747 613 q 746 623 746 618 q 770 677 746 654 q 834 700 797 700 l 929 700 l 929 165 q 652 1 929 1 q 465 28 533 1 q 273 1 387 1 q 0 165 0 1 l 0 613 q 23 677 0 646 q 82 700 45 700 l 178 700 l 178 161 q 205 106 178 120 q 273 93 233 93 q 342 106 314 93 q 370 165 370 120 l 370 613 z "},"x":{"ha":610,"x_min":0,"x_max":543,"o":"m 422 0 q 333 81 359 0 l 269 253 l 197 56 q 121 1 179 1 l 1 1 l 144 347 l 0 699 l 119 699 q 197 637 178 699 l 274 441 l 341 643 q 417 698 355 698 l 538 698 l 393 347 l 543 0 l 422 0 z "},"y":{"ha":610,"x_min":0,"x_max":543,"o":"m 376 9 q 276 -1 326 -1 q 125 22 200 -1 q 0 174 0 61 l 0 697 l 101 697 q 158 675 136 697 q 180 619 180 654 l 180 165 q 208 113 180 130 q 272 96 237 96 q 337 111 307 96 q 372 161 368 126 l 372 697 l 460 697 q 517 675 499 697 q 543 619 543 650 q 541 89 543 165 q 534 -36 538 14 q 477 -151 530 -86 q 388 -203 442 -186 q 262 -220 333 -220 q 166 -208 210 -220 q 92 -173 123 -195 q 31 -87 39 -130 l 202 -87 q 292 -132 229 -132 q 314 -130 302 -132 q 376 9 395 -122 z "},"z":{"ha":610,"x_min":0,"x_max":543,"o":"m 352 598 l 14 598 l 14 613 q 40 670 14 642 q 103 699 66 699 l 455 699 q 513 685 484 699 q 543 649 543 671 l 543 598 l 191 102 l 432 102 q 521 15 521 102 l 521 1 l 87 1 q 0 58 0 1 l 0 102 l 352 598 z "},"{":{"ha":441,"x_min":0,"x_max":373,"o":"m 284 1106 l 372 1106 q 373 1105 373 1106 l 373 986 q 351 946 373 960 q 323 941 345 943 q 287 915 299 933 q 272 884 277 900 q 262 838 262 848 q 255 684 255 794 q 250 602 254 612 q 241 561 250 594 q 214 512 232 534 q 148 472 192 485 q 208 438 184 461 q 233 401 229 414 q 254 270 254 363 q 259 130 256 146 q 270 65 260 106 q 307 11 282 25 q 339 1 323 1 q 359 -9 350 -1 q 373 -42 373 -24 l 373 -161 q 372 -162 373 -162 l 279 -162 q 119 -47 159 -162 q 104 14 111 -24 q 96 94 100 39 q 90 281 93 146 q 83 330 90 293 q 73 361 79 350 q 24 391 63 380 q 0 430 0 401 l 0 514 q 25 553 0 544 q 64 572 58 563 q 79 596 76 585 q 90 689 90 633 q 96 863 94 817 q 107 945 101 916 q 127 1009 116 986 q 198 1088 151 1065 q 284 1106 233 1106 z "},"|":{"ha":237,"x_min":4,"x_max":170,"o":"m 75 1065 l 168 1065 q 170 1064 170 1065 l 170 -169 q 127 -271 170 -238 q 93 -280 114 -280 l 5 -280 q 4 -279 4 -280 l 4 962 q 41 1053 4 1017 q 75 1065 58 1065 z "},"}":{"ha":509,"x_min":68,"x_max":441,"o":"m 243 1088 q 315 1009 290 1065 q 334 945 325 986 q 345 863 340 916 q 351 689 348 817 q 362 596 351 633 q 376 572 366 585 q 416 553 383 563 q 441 514 441 544 l 441 430 q 416 391 441 401 q 368 361 378 380 q 357 330 361 350 q 352 281 352 293 q 345 94 348 146 q 336 14 341 39 q 321 -47 330 -24 q 161 -162 281 -162 l 68 -162 q 68 -161 68 -162 l 68 -42 q 81 -9 68 -24 q 102 1 91 -1 q 135 11 118 1 q 171 65 159 25 q 182 130 181 106 q 186 270 185 146 q 208 401 186 363 q 233 438 212 414 q 293 472 256 461 q 227 512 249 485 q 199 561 209 534 q 191 602 191 594 q 186 684 188 612 q 180 838 186 794 q 170 884 180 848 q 155 915 164 900 q 117 941 142 933 q 91 946 96 943 q 68 986 68 960 l 68 1105 q 68 1106 68 1106 l 157 1106 q 243 1088 208 1106 z "}}}
